# AST/ASF file generated using VICON BodyLanguage
# -----------------------------------------------
:version 1.10
:name VICON
:units
  mass 1.0
  length 0.45
  angle deg
:documentation
   .ast/.asf automatically generated from VICON data using
   VICON BodyBuilder and BodyLanguage model FoxedUp or BRILLIANT.MOD
:root
   order TX TY TZ RX RY RZ
   axis XYZ
   position 0 0 0  
   orientation 0 -0 0 
:bonedata
  begin
     id 1 
     name lhipjoint
     direction 0.432694 -0.693742 0.575759 
     length 2.19277 
     axis 0 -0 0  XYZ
  end
  begin
     id 2 
     name lfemur
     direction 0.34202 -0.939693 0  
     length 6.69022  
     axis 0 -0 20  XYZ
    dof rx ry rz
    limits (-160.0 20.0)
           (-70.0 70.0)
           (-60.0 70.0)
  end
  begin
     id 3 
     name ltibia
     direction 0.34202 -0.939693 0   
     length 6.50337   
     axis 0 -0 20   XYZ
    dof rx
    limits (-10.0 170.0)
  end
  begin
     id 4 
     name lfoot
     direction 0.158999 -0.435969 0.885805   
     length 2.70564   
     axis -90 -1.13533e-015 20   XYZ
    dof rx rz
    limits (-45.0 90.0)
           (-70.0 20.0)
  end
  begin
     id 5 
     name ltoes
     direction -0.00592919 0.00964381 0.999936   
     length 1.29929   
     axis -90 -1.13533e-015 20   XYZ
    dof rx
    limits (-90.0 20.0)
  end
  begin
     id 6 
     name rhipjoint
     direction -0.414359 -0.700339 0.581234   
     length 2.17212  
     axis 0 -0 0  XYZ 
  end
  begin
     id 7 
     name rfemur
     direction -0.34202 -0.939693 0   
     length 7.17659   
     axis 0 -0 -20   XYZ
    dof rx ry rz
    limits (-160.0 20.0)
           (-70.0 70.0)
           (-70.0 60.0)
  end
  begin
     id 8 
     name rtibia
     direction -0.34202 -0.939693 0   
     length 6.36669   
     axis 0 -0 -20   XYZ
    dof rx
    limits (-10.0 170.0)
 end
 begin
     id 9 
     name rfoot
     direction -0.137064 -0.37658 0.916188   
     length 2.22351  
     axis -90 1.13533e-015 -20   XYZ
    dof rx rz
    limits (-45.0 90.0)
           (-20.0 70.0)
  end
  begin
     id 10 
     name rtoes
     direction -0.000784077 -0.00289101 0.999996   
     length 1.09522   
     axis -90 1.13533e-015 -20   XYZ
    dof rx
    limits (-90.0 20.0)
  end
  begin
     id 11 
     name lowerback
     direction -0.0176242 0.984912 -0.172157   
     length 1.65301   
     axis 0 -0 0   XYZ
    dof rx ry rz
    limits (-20.0 45.0)
           (-30.0 30.0)
           (-30.0 30.0)
  end
  begin
     id 12 
     name upperback
     direction -0.00218128 0.998776 -0.0494072   
     length 1.67776   
     axis 0 -0 0   XYZ
    dof rx ry rz
    limits (-20.0 45.0)
           (-30.0 30.0)
           (-30.0 30.0)
  end
  begin
     id 13 
     name thorax
     direction 0.00544186 0.999658 0.0255711   
     length 1.72293   
     axis 0 -0 0   XYZ
    dof rx ry rz
    limits (-20.0 45.0)
           (-30.0 30.0)
           (-30.0 30.0)
  end
  begin
     id 14 
     name lowerneck
     direction -0.105325 0.983841 0.144785   
     length 2.14226   
     axis 0 -0 0   XYZ
    dof rx ry rz
    limits (-20.0 45.0)
           (-30.0 30.0)
           (-30.0 30.0)
  end
  begin
     id 15 
     name upperneck
     direction 0.0547957 0.988053 -0.144041   
     length 2.17508   
     axis 0 -0 0   XYZ
    dof rx ry rz
    limits (-20.0 45.0)
           (-30.0 30.0)
           (-30.0 30.0)
  end
  begin
     id 16
     name head
     direction 0.0247488 0.997534 -0.0656813  
     length 2.20048  
     axis 0 -0 0   XYZ
    dof rx ry rz
    limits (-20.0 45.0)
           (-30.0 30.0)
           (-30.0 30.0)
  end
  begin
     id 17 
     name lclavicle
     direction 0.820559 0.567247 -0.0701026  
     length 4.09615  
     axis 0 -0 0   XYZ
    dof ry rz
    limits (-20.0 10.0)
           (0.0 20.0)
  end
  begin
     id 18 
     name lhumerus
     direction 0.999977 -0.0067566 -9.96392e-005   
     length 4.59333   
     axis -180 -30 -90   XYZ
    dof rx ry rz
    limits (-60.0 90.0)
           (-90.0 90.0)
           (-90.0 90.0)
  end
  begin
     id 19
     name lradius
     direction 1 -4.48982e-011 -2.53425e-027   
     length 2.81151   
     axis -180 -30 -90   XYZ
    dof rx
    limits (-10.0 170.0)
  end
  begin
     id 20
     name lwrist
     direction 1 -4.48939e-011 -7.39254e-028   
     length 1.40576   
     axis 2.56395e-016 90 90   XYZ
    dof ry
    limits (-180.0 0.0)
 end
  begin
     id 21 
     name lhand
     direction 1 -4.48939e-011 -1.47851e-027   
     length 0.895651   
     axis 9.43423e-016 90 90   XYZ
    dof rx rz
    limits (-90.0 90.0)
           (-45.0 45.0)
  end
  begin
     id 22 
     name lfingers
     direction 1 -4.48978e-011 -2.95702e-027   
     length 0.722097   
     axis 1.88685e-015 90 90   XYZ
    dof rx
    limits (0.0 90.0)
  end
  begin
     id 23
     name lthumb
     direction 0.707107 -6.34931e-011 0.707107   
     length 1.03679   
     axis -90 45 -9.86935e-015   XYZ
    dof rx rz
    limits (-45.0 45.0)
           (-45.0 45.0)
  end
  begin
     id 24 
     name rclavicle
     direction -0.831414 0.553102 -0.0531864   
     length 4.24872  
     axis 0 -0 0   XYZ 
    dof ry rz
    limits (-10.0 20.0)
           (-20.0 0.0)
  end
  begin
     id 25 
     name rhumerus
     direction -0.999916 -0.000939607 0.0129331  
     length 4.74834   
     axis -180 30 90   XYZ
    dof rx ry rz
    limits (-90.0 60.0)
           (-90.0 90.0)
           (-90.0 90.0)
  end
  begin
     id 26 
     name rradius
     direction -1 -4.48956e-011 -1.31752e-027   
     length 2.79907   
     axis -180 30 90   XYZ
    dof rx
    limits (-10.0 170.0)
  end
  begin
     id 27 
     name rwrist
     direction -1 -4.4897e-011 -7.39254e-028   
     length 1.39954   
     axis 2.56395e-016 -90 -90   XYZ
    dof ry
    limits (-180.0 0.0)
  end
  begin
     id 28
     name rhand
     direction -0.999997 -0.00250697 0.000800838   
     length 0.953304   
     axis 9.43423e-016 -90 -90   XYZ
    dof rx rz
    limits (-90.0 90.0)
           (-45.0 45.0)
  end
  begin
     id 29
     name rfingers
     direction -1 -4.48954e-011 -2.95702e-027   
     length 0.763342   
     axis 1.88685e-015 -90 -90   XYZ
    dof rx
    limits (0.0 90.0)
  end
  begin
     id 30
     name rthumb
     direction -0.709701 -0.00217037 0.7045   
     length 1.10115   
     axis -90 -45 9.86935e-015   XYZ
    dof rx rz
    limits (-45.0 45.0)
           (-45.0 45.0)
  end
:hierarchy
  begin
    root lhipjoint rhipjoint lowerback
    lhipjoint lfemur
    lfemur ltibia
    ltibia lfoot
    lfoot ltoes
    rhipjoint rfemur
    rfemur rtibia
    rtibia rfoot
    rfoot rtoes
    lowerback upperback
    upperback thorax
    thorax lowerneck lclavicle rclavicle
    lowerneck upperneck
    upperneck head
    lclavicle lhumerus
    lhumerus lradius
    lradius lwrist
    lwrist lhand lthumb
    lhand lfingers
    rclavicle rhumerus
    rhumerus rradius
    rradius rwrist
    rwrist rhand rthumb
    rhand rfingers
  end

#!OML:ASF G:\ViconDB\ViconDB\414\test\team2\shane.ASF
:FULLY-SPECIFIED
:DEGREES
49
root 2.11051 15.5896 -26.455 65.4438 34.6152 -50.2442
lowerback 26.5371 4.27427 -11.8822
upperback 8.36088 1.70666 -6.8267
thorax -5.39063 0.739621 -1.3296
lowerneck -29.6849 -8.00651 -15.3419
upperneck 19.303 -4.07034 -0.271933
head 11.5272 -2.99321 1.55121
rclavicle -1.20861e-013 -2.54444e-014
rhumerus 96.8139 -12.0698 -60.6001
rradius 23.4688
rwrist 52.4845
rhand -43.8321 -24.3843
rfingers 7.12502
rthumb -16.6595 -53.6894
lclavicle -1.20861e-013 -2.54444e-014
lhumerus 56.5309 11.744 6.75784
lradius 26.7401
lwrist 17.1276
lhand -65.6087 52.3276
lfingers 7.12502
lthumb -37.4732 78.2683
rfemur 33.6998 -15.0626 10.2758
rtibia -1.43125e-014
rfoot 12.481 5.21766
rtoes -13.2568
lfemur -64.2328 -5.24896 56.1507
ltibia 58.7853
lfoot -46.756 33.582
ltoes -9.47598
50
root 2.20522 15.6284 -26.1647 66.3593 36.3832 -51.3823
lowerback 25.948 4.08953 -11.9287
upperback 8.16898 1.56517 -6.76121
thorax -5.31448 0.680264 -1.16344
lowerneck -30.0972 -7.93611 -15.0662
upperneck 18.8437 -4.10108 -0.0521587
head 11.4117 -2.94178 1.58243
rclavicle 9.70069e-014 5.725e-014
rhumerus 97.4143 -13.0711 -61.088
rradius 23.335
rwrist 51.5065
rhand -44.0518 -25.0767
rfingers 7.12502
rthumb -16.8711 -54.3639
lclavicle 9.70069e-014 5.725e-014
lhumerus 57.7114 14.0703 9.86719
lradius 25.7268
lwrist 13.2794
lhand -67.2589 57.4505
lfingers 7.12502
lthumb -39.031 82.9616
rfemur 31.9558 -13.727 8.29053
rtibia 6.75355
rfoot 10.088 5.06531
rtoes -12.8885
lfemur -62.4228 -3.74302 55.8851
ltibia 58.5015
lfoot -40.1091 29.1492
ltoes -3.7636
51
root 2.29959 15.6552 -25.8976 66.9214 38.3831 -52.5713
lowerback 25.6279 3.80636 -11.4171
upperback 7.93496 1.38679 -6.6453
thorax -5.41232 0.610804 -1.25242
lowerneck -30.3791 -7.79641 -15.2695
upperneck 18.5922 -3.89763 0.362022
head 11.3558 -2.80311 1.80415
rclavicle -2.00375e-013 -2.54444e-014
rhumerus 97.4192 -14.1466 -60.5201
rradius 23.4642
rwrist 50.8264
rhand -44.3567 -26.3319
rfingers 7.12502
rthumb -17.1645 -55.5938
lclavicle -2.00375e-013 -2.54444e-014
lhumerus 58.7533 16.4019 13.924
lradius 25.9016
lwrist 8.51004
lhand -68.1617 61.0805
lfingers 7.12502
lthumb -39.8814 86.3422
rfemur 31.1166 -12.403 6.56169
rtibia 11.9564
rfoot 8.54799 4.52282
rtoes -12.4974
lfemur -60.3582 -1.09549 54.4382
ltibia 58.9935
lfoot -33.0847 22.634
ltoes 3.89201
52
root 2.38435 15.6689 -25.6453 67.362 39.8424 -54.0692
lowerback 24.8663 3.7077 -11.2693
upperback 7.5937 1.38493 -6.6886
thorax -5.41906 0.62033 -1.3576
lowerneck -30.1885 -7.66469 -15.5754
upperneck 18.2222 -3.82064 1.01077
head 11.1913 -2.69221 2.11554
rclavicle -4.92986e-014 -4.45278e-014
rhumerus 97.0774 -14.7547 -60.4346
rradius 23.6993
rwrist 51.2266
rhand -44.7412 -27.2848
rfingers 7.12502
rthumb -17.5346 -56.514
lclavicle -4.92986e-014 -4.45278e-014
lhumerus 59.9211 18.0652 17.0146
lradius 25.7533
lwrist 5.11047
lhand -69.2007 65.7256
lfingers 7.12502
lthumb -40.8585 -90.6868
rfemur 30.2878 -10.5329 4.58359
rtibia 16.1956
rfoot 7.34509 3.86442
rtoes -12.8402
lfemur -58.0511 2.5781 52.0442
ltibia 60.276
lfoot -28.6788 16.6568
ltoes 4.7681
53
root 2.47158 15.6723 -25.3971 67.583 41.0711 -55.6815
lowerback 24.1999 3.73888 -11.2939
upperback 7.11876 1.45645 -6.83518
thorax -5.62116 0.671509 -1.51387
lowerneck -29.7725 -7.50375 -15.3144
upperneck 17.9438 -3.86134 1.19974
head 11.0136 -2.65748 2.14958
rclavicle 1.89243e-013 6.04305e-014
rhumerus 96.3416 -15.1644 -60.4582
rradius 23.7628
rwrist 51.9649
rhand -45.6847 -27.5895
rfingers 7.12502
rthumb -18.4424 -56.7353
lclavicle 1.89243e-013 6.04305e-014
lhumerus 60.959 18.9516 19.0324
lradius 25.4301
lwrist 2.62924
lhand -70.3925 75.72
lfingers 7.12502
lthumb -41.9768 -100.318
rfemur 29.0451 -8.41048 2.52614
rtibia 20.9695
rfoot 5.84742 3.0356
rtoes -12.4853
lfemur -55.3924 4.66577 50.396
ltibia 62.1727
lfoot -26.7119 12.94
ltoes 2.95204
